<svg width="116" height="117" viewBox="0 0 116 117" fill="none" xmlns="http://www.w3.org/2000/svg">
<g clip-path="url(#clip0_625_11739)">
<path d="M107.742 47.6744L102.913 44.001C103.54 41.7777 104.072 39.8927 104.555 38.2493C106.486 31.7727 107.549 28.196 104.893 24.5227C102.236 20.8493 98.6145 20.7043 91.7569 20.511H85.7685C84.9475 18.3843 84.3197 16.4993 83.7402 14.9043C81.5187 8.52435 80.2631 5.23768 75.9167 3.59435C71.5704 1.95102 68.5279 4.27102 62.9259 8.13768L58.0966 11.4727L53.2673 8.23435C48.2931 4.31935 44.6228 1.90268 40.2281 3.35268C35.8335 4.80268 34.6744 8.18602 32.4047 14.6143C31.8251 16.2093 31.149 18.0943 30.3764 20.2694L24.1465 20.4627C17.3855 20.4627 13.6669 20.7043 11.0108 24.3777C8.3547 28.051 9.65862 31.6277 11.4938 38.1527C11.9767 39.796 12.5562 41.681 13.1357 43.9043L8.30641 47.5777C3.04246 51.6377 0 53.9094 0 58.501C0 63.0927 2.94588 65.316 8.30641 69.4244L13.1357 73.0977C12.5562 75.321 11.9767 77.206 11.4938 78.8493C9.56203 85.326 8.49958 88.9027 11.1557 92.576C13.8118 96.2494 17.5787 96.346 24.2914 96.5394H30.2315C31.0525 98.666 31.6803 100.551 32.2598 102.146C34.5296 108.526 35.7369 111.813 40.0833 113.456C44.4296 115.099 47.4721 112.779 53.0741 108.913L57.9034 105.578L62.7327 108.816C65.7113 111.426 69.3878 113.106 73.3089 113.649C74.1797 113.64 75.0435 113.494 75.8684 113.214C80.2148 111.813 81.4221 108.381 83.6919 101.953C84.2714 100.358 84.8993 98.4727 85.7202 96.346H91.7086C98.4696 96.346 102.188 96.1044 104.844 92.3827C107.5 88.661 106.486 85.1327 104.555 78.656C104.072 77.0127 103.492 75.1277 102.913 72.9044L107.742 69.231C113.054 65.4127 115.903 63.3344 115.903 58.501C115.903 53.6677 113.054 51.7827 107.742 47.6744Z" fill="#8DC63F"/>
<path d="M50.0795 83.9237C49.4267 83.8962 48.7861 83.7364 48.1968 83.454C47.6074 83.1715 47.0814 82.7722 46.6507 82.2804L32.4043 66.3787C31.5525 65.4173 31.1173 64.1567 31.1943 62.8741C31.2712 61.5915 31.8542 60.392 32.8148 59.5396C33.7754 58.6871 35.035 58.2515 36.3165 58.3286C37.598 58.4056 38.7965 58.989 39.6482 59.9504L50.3693 72.0821L80.9388 42.3087C81.3792 41.8099 81.9177 41.4076 82.5207 41.1268C83.1237 40.8461 83.7782 40.693 84.443 40.6771C85.1079 40.6613 85.7689 40.7831 86.3845 41.0349C87.0001 41.2867 87.5572 41.663 88.0207 42.1402C88.4843 42.6175 88.8443 43.1855 89.0783 43.8085C89.3123 44.4316 89.4152 45.0963 89.3805 45.761C89.3459 46.4257 89.1744 47.0761 88.8769 47.6713C88.5794 48.2666 88.1622 48.794 87.6516 49.2204L53.4601 82.6671C52.5376 83.5071 51.3262 83.9574 50.0795 83.9237Z" fill="white"/>
</g>
<defs>
<clipPath id="clip0_625_11739">
<rect width="116" height="116" fill="white" transform="translate(0 0.5)"/>
</clipPath>
</defs>
</svg>
